<svg version="1.0" xmlns="http://www.w3.org/2000/svg" 
  viewBox="0 0 980 980">

  <g transform="translate(0,980) scale(0.1,-0.1)"
    fill="#ccc" 
    stroke="none">

    <path 
      d="M4625 9793 c-621 -32 -1282 -203 -1850 -477 -1701 -823 -2777 -2537
      -2775 -4421 1 -1052 342 -2078 969 -2920 1061 -1423 2790 -2158 4551 -1934
      1499 190 2830 1068 3602 2374 496 840 730 1818 668 2790 -91 1418 -772 2697
      -1905 3580 -131 102 -439 305 -590 390 -745 415 -1591 632 -2430 623 -99 -1
      -207 -3 -240 -5z m705 -1038 c859 -100 1638 -464 2253 -1055 663 -637 1063
      -1447 1174 -2380 24 -203 24 -640 -1 -840 -60 -493 -180 -900 -390 -1320 -543
      -1084 -1575 -1859 -2763 -2074 -259 -47 -408 -60 -703 -60 -305 0 -453 13
      -725 65 -1474 280 -2653 1383 -3030 2836 -86 329 -119 602 -119 973 0 286 12
      436 55 680 130 744 490 1453 1019 2003 681 709 1582 1126 2575 1191 121 8 524
      -4 655 -19z"
    />
    <path 
      d="M4412 5878 l3 -1472 1280 -768 c704 -422 1282 -768 1285 -768 4 0
      213 337 363 586 7 13 -41 43 -878 539 -165 98 -433 257 -595 353 -162 96 -391
      232 -507 301 l-213 126 0 1288 0 1287 -370 0 -370 0 2 -1472z"
    />
      
  </g>
</svg>
