<svg xmlns="http://www.w3.org/2000/svg"
  viewBox="0 0 980 980">

<g transform="translate(0,980) scale(0.1,-0.1)"
  fill="#ccc" 
  stroke="none">
  
  <path 
    d="M2612 7188 l-2612 -2613 2288 -2288 2287 -2287 2612 2613 2613 2612
    -163 2120 -162 2120 -25 7 c-14 4 -943 78 -2065 163 -1122 86 -2067 158 -2100
    161 l-60 5 -2613 -2613z m5153 1273 c266 -72 502 -267 625 -516 78 -158 95
    -238 94 -435 -1 -197 -17 -270 -94 -427 -130 -265 -353 -445 -640 -520 -118
    -31 -322 -36 -436 -10 -203 46 -368 140 -515 293 -130 136 -208 290 -250 489
    -22 102 -15 304 14 415 72 276 242 493 490 625 101 54 147 71 257 96 117 26
    339 21 455 -10z"
  />
</g>
</svg>
