<svg version="1.0" 
  xmlns="http://www.w3.org/2000/svg" 
  viewBox="0 0 980 590">

  <g transform="translate(0,590) scale(0.1,-0.1)" 
    fill="#ccc" 
    stroke="none">

    <path 
      d="M6870 5883 c0 -5 250 -258 555 -563 l555 -555 -1195 -1195 -1195
      -1195 -978 978 -977 977 -1818 -1818 -1817 -1817 345 -345 345 -345 1473 1473
      1472 1472 978 -977 977 -978 1538 1538 c845 845 1542 1537 1547 1537 6 0 261
      -251 568 -558 l557 -557 0 1467 0 1468 -1465 0 c-806 0 -1465 -3 -1465 -7z"/
    >

  </g>
</svg>
